<svg width="268" height="46" fill="none" xmlns="http://www.w3.org/2000/svg"><path d="M37 8.7c.3 5.3-5.2 7.7-8.6 9.8C46 22 29.4 37.3 7.1 39.7l.2-.3V39c-1.4 0-3.6.5-5 .3 1 0 2.1-.3 2.8-.3.3-.2.3-.2-.2-.2.7-.2 1.7-.2-.2-.2 2.1-1.7-3.2-1-4.1-1.5 1.4 0 2.6 0 3.8-.2-.2-.3-1.4 0-1.7 0l1.7-.3c-.2-.4-.7-.2-1.2-.2.3 0 1.7-.2 1.7 0a4 4 0 0 1 1.2-.5h.2c-2.1-.2.8-.5 1-.7.2-.7 1-3.1 1-3.6 0 0-2 4-1.2.2 0 0 0-.2-.3-.2a115 115 0 0 1 5.5-17.8c1-1.4 3.6-2.1 4.8-2.8-1 0-2.4.2-3 .4-.8-.7-5.8 1.2-6.6 1 .8 0 1.5-.5 2.4-.7.3-.3.3-.3-.2 0 .7-.5 3.6-1.2 4-1.5-1.1 0-3 .8-4.2 1 1-.5 2.4-.7 3.8-1.2 1.4-.2-2.2.5-1.2 0l-2.2.2c-1 .3 1.2-.2 1.5-.2-1.7.2-6 1.2-1.5-.2.5-1-4.3.7-4.8.7l3.4-1.2c0-.3-1 0-1.4.2l1.4-.7c-.2 0-.2-.2-1.2.2.2-.2 1.4-.4 1.7-.4 2.6-1.7 27.3-7.2 28 .2ZM7.4 39.4c.2-.2.2-.2.2-.5l-.2.5Zm19.6-14.3c-3.6-1-4.2-1.4-7.6-1.7-.5 0-2-1-1-1.9l-.4-.2c-1 3.6-1.7 5.8-3.4 10.6 6-2 7.9-2.8 12.4-6.8ZM28.6 11v-.2h-.8c-3.3-.3-4.5.1-7.6.1-.5 2.9-1 5-1.7 7.4 3.8-2.4 6.5-4.9 10-7.3Zm15.2-5.7c.3.3-.3.8-.3 1.1-.3-.3.3-.8.3-1Zm27.4 4.5-.5 4c-.5 1.3-1.6 4.5-1 4.2 0 1.6-1.9 2.9-1.4 4a50.5 50.5 0 0 1-6.8 13.4c-2.1 3-4 4-5.8 5.3-1.4-.5-.6-2.4-.8-3.4-.6.2-.8 0-1.1-.3-.5 0-1 .3-1.3.3h-1a9 9 0 0 1-3 .5c-.8 0-1.3 0-2.1-.3-.8 0-1.3-.2-2.1-.5s-1.6-.8-2.1-1.3c-.8-.3-1.3-1-2.1-1.6a9.3 9.3 0 0 1-2.1-4.2l-.6-2.1c0-.6 0-1.1-.2-1.6V21.9c.2-.2.2-.5.2-.7V19c0-.3 0-.6.3-.8l1-3.2.8-1.6c0-.2.3-.5.3-.8 0-.3.3-.3.3-.5.5 0 0 .2.3.2 0 0 0-.2.2-.2v-.5c.3-.3.5 0 .5 0 .3-.6.3-.6 0-.8.8-1.6 1.4-3.2 2.1-4.3 0 .9-.2 1.4-.5 2.1 0 .3-.2.6-.5.9 0 .2-.3.5-.5.7.2.3.2 0 0 .8.5-1 1.3-2 1.5-3.4h.3c0-1 .6-1.6.6-2.6.2 0 .2-.6.5-.8 0 .2-.3.5-.3.8L44 6c0 .8-.3 1.4-.6 1.9 0 1.3-.8 1.6-1 2.3.7-.5 1.3-1.6 1.6-2.6.5-1 .7-2.1 1-2.9v1c-.3.3-.3.6-.3.8.5.3.8 0 .8-.2l.8-1.3-.2 1c0 .8.7.3.7 1 .3 0 .3-.5.6-.7 0 .2.2.2.5 0-.3.5-.3 1.8-.5 1.6.5.5-.3 1.3.2 1.6 0 1.3-.2 2.3-.5 3.4 0 .3-.3.5-.3.8l-.2.8-.3.8-.2.7c-.6 1.6-1 3.2-1.4 4.8.5 0 .3-1.3.5-1.6.3-.8.6-.8.3 0a19 19 0 0 0-.5 4c0 .8 0 1.6.2 2.3 0 .6 0 1.4.3 2 .3.4.6 1 .6 1.5.2.2.5.5.7 1l1 .8c.4.3.9.3 1.1.6h.3l.3-.3c.3 0 .5 0 .5-.3h.5a4 4 0 0 0 1.6-.7c.5-.3 1.4-.9 2.1-1.6l1.9-2.1c1.3-2 2.3-3.7 3.2-5.6h.2l.8-1.8c0-.3.3-.6.3-.8.5-1.1 1-2.4 1.5-3.2 1.1-2.1.9-2.9 1.6-4.8l1.9-2.6c.2-1 .5-1.8.8-2.4.5.6-.3 1.9 0 2.4.3 0 .3.8.3 1.3 0 0 .7-1 1-2 0 0 0-.6.3-.9v1.4c0 .5.5-.3.8-1.6.2-1 .5-1.6.5-1.6s0 1-.3 2.1c-.2 1 .5 0 .5 0s.3.5 0 1.3c-.2.8.3-.2.9-1 .2-.3 0 .2 0 .8 0 1.2 0 2.6-.3 3.6 0 .3-.6 1.1-.3 1.6 0 0-.3.3-.3.6 0-.3.6.2.6 0l1-3.5ZM100 27.2s.3 1.8 0 3.3C98.6 42 81 46.8 74 44.7c-.9-.2-3.4-1.6-4.2-2.4-1.2-1.4-2.5-3.6-1.6-5.2 1.3-3.8 5.6-5.6 9.2-5.6 0 .2-.4.2-.4.4 0 .3.2-.2.4 0-.2.3-.2 0-.2 0 0 .3.2.5-.2.3 0 .2 0 .4.2.6l-.5.2.7-.2c-.2.5-1 .7-1.4 1.1.5 0 .7-.4 1.2-.6.2.2-.2.4-.2.4.2 0 .6-.4.9-.4 0 .2-.3.2-.5.4.2.2.5-.2.7-.2 0 .2 0 .2-.2.2.6.2 1 0 1.3 0 0 0-.5.4-.9 1A16 16 0 0 0 76 37c-.2.2.2.7.7.7 2.7.2 9.2-1 11.7-2.7v-.3s0 .3.4 0c0 0 1.8-1.3 2.3-4 0 0-.2-5-.7-9l-.2-3.1c-.2 0-6.7 11.8-15 11-.5 0-1 0-1.4-.3-3-.4-3.4-4.7-2.7-9.6.7-5.6 3.1-12 5.4-15.7-.5.6.2.2.9-.7l-.2.4c.7-.9 1.1-2 1.5-3.1-1.1 4.5.7 3-.2 4.5 1.3-1.8.2.4.2 1.1.7-.7 2.3-1.3 3-2-.3 2.9.6.4 1-.2-.6 4.7-1.7 6.7-2.4 10.5 0 0-3.1 9.4 4.7-1 0 0 3.4-4.6 3.8-7 .5-2 7.3-4.8 8.8 6.2l2.4 14.4Zm-20.8 6.5c.2-.2.2-.2 0 0Zm65-6.3.3-1a6.8 6.8 0 0 1-2.4 4c.4-.6 1.6-2.2 2-3Zm-2 1.8a16.6 16.6 0 0 1-9.3 5.1c-.4 1.2-.3 7-1.3 5.7l-.8 4c0-.5-.2-1.5 0-2-.4.3-.2-3.5-.4-2.1-.5-.2 0-.7 0-1.2-.6 2.8-.9.1-.5-.2-.4-1-.1 1.2-.4 1.4V37c-.6 1-.6 3-1.2 4.1.3-.6-.2-1.4-.4-1.9-.4.3-.2 2-.6 2.5 0-2-.3-3.3-.1-6.7l-3.3.6c-1.3-.9-4 0-5-.7 1.2 0 1.5-.2 2 0 .2-.2 0-.2-.3-.2.7-.2 3-.2 3.1-.6-1.4 0-2.4.2-3.3 0 1.7-.2 3.3 0 4.5-.4v-.4c-.2 0-1.4.2 0 0V33l-3.8-.2c0-1-3-.7-3.5-1.2l2.5.1-1.1-.1c.4-.3.8 0 1-.3-.2-.1-.2-.4-.8-.1.2-.3 1-.3 1 0 6.1-1 12.1-2.1 16.4-5.7-1.7-.9-3.7-1.3-5.1-1.7a3 3 0 0 0-1.5.8c.4-1-.4-1-.4-1.4l-.4-.2c.4-.2.4-.4.7-.6-.9 0-.9-.6-.3-1.5-1 .9-1.4.5-1.4-1 1.4-2 6.3-5.7 8.2-7.5-4.5.2-8.6 1-12.5 1.4-.8-.4-4.7 1-5.5.8 1-.4 1.4-.6 2-.6.2-.2.2-.2-.1-.2.3-.2 2.8-.6 3.2-1-1 0-2.4.4-3.4.6 1.3-.6 4.4-1 5.8-1.7-.4-.1-2.8.4-1.8.3l1.8-.7c-1.8.3-3.3.3-5.6.8.1-1.2-4.8.7-4.8.5 1.7-.6 2.3-.6 3.5-1-.2-.3-.8 0-1.4.1.6-.4 1.2-.4 1.2-.5 0-.3-.2-.3-.8 0 0-.3 1-.4 1.2-.4 1.9-1 4.7-1.3 7-2.1.4-1.6.2-5.7.6-7.2.2-.5.2-1 .4-1.3.4 0 .2.3.4.5 0-.2 0-.4.2-.5l.6.1c-.4.2-.2.7 0 .8-.2 0 0 .3.2.4.6-.1.6.5 1 .7-.2-.2-.2-.7-.2-1 .3 0 .4.3.4.6.4 0 .3-.7.7-.8l.1-.5c.9.2.9-.2 1 0 .9 1.5 1 5.5.9 6.8 12.4-3 15 4.3 6 11.4 6 2 7 7 3.8 10.6ZM182 2.9c-.2.2-.5-.2-1 0 .3-.2.8 0 1 0Zm-13 16.4c0 .2-.5.2-1 .5.3-.3.8-.5 1-.5Zm-2.7-4.4c-1.4 2.2 7.1-.7 9.3-.5 14 .3 14.8 6.8 3.8 15-8.3 6-22.5 13.6-24.8-.5v.2c.2-1 0-1.5.1-1.7a13 13 0 0 1 .3-4c-.2 2 .2 3 .3 4.5v-1.5c.1.3 0 1 .3 1.5V27c.2.8.2 1.5.6 2 0 0-.2-.2 0-.2 0 .2 0 .2.3.2-.3.2-.3 0 0 .5 0-.5 0-.5.2-.5l-.4-1.5c.2.7.4 1.7.8 2.2-.1-1 0-2.2-.2-2.7.2.5.1 1 .3 1.2V27c.1.2.2-.5.3-1 .2.2.2.5.1.8.3-.3-.1-1.3.2-1.5.2.4.1 1.2 0 1.5.4-.3.2-1 .2-1.5.3 0 .2.4.2.7.2-.3 0-.7.3-.7 0 .7-.2 2.2.6 2.2 0 .2 0 .5.2.5 0 .2-.3.2-.3.2.6.8 1 1.7 1.5 1.7 3.7 3 11.4-4 13.2-4v-.2c.2 0 .5-.7.7-.2-.4-.5.6-.7.6-1.2l.2.2c5.6-5-6.4-2-8.1-2.2V22c-5.2 1.2-10.8-2.5-7.6-8.4 3.5-5.6 11.7-10 16.4-11.2.3.3-.2.3-.2.3.5 0 1.2-.3 1.4.2.5-.2.5-.2.7-.5 1.8-.2 3.5-.2 4.7.3-1.2 0-3 0-4.1-.3-.3.5-.6.3-.8.5 2-.2 2.6 0 4-.2l-.1.2 2.4.2.7.5c-2.1-1-4-.5-5.8-.5 2.4 0 4.4.5 6.2 1.3.8 2.7-1.4 4.9-3 6.8-.3 0-.3.5-.8.5-.2 0 0 0-.2-.3-.3.6-.5.6-1 1-.3-.2.2-.4.2-.4-.4-.3-.2.2-.5.2V12s-.2-.3 0-.3c.1-.3.1-.3-.2-.5V11l-.2.2.6-1.2c-.5.2-.5.5-.8 1v-.5c-.2 0-.3.5-.5.7l.2-.5c-.4 0-.2.3-.4.3v-.3c-.8 0-1.6 1.3-1.4 1 .4-.5.6-.7.7-1.2 0-.3-.2-.3-.2-.3.5-.7.9-2 1.4-3.1-2.7 1-5 1.9-7.1 3.1.2.3 1.3-.4 1.5-.7l.8-.2c-3 1.7-5.7 3.9-7.8 5.6Zm46.7 20.8c.5.2 2 0 2.2.2-.7.3-1.5.3-2.5.5-.7 0-2 .8-2.7.8-2 .4-2.4.2-4.6.4-2.7.8-5.9 1.2-8.6 1.8-4.6 1-9.3-2-9.7-3.2 1.6-1.2-1-3.2-1-3.7 0 0 .7.2.7-.8 0-.4-1 .3-.8-1.2h-.7c-.2 0-.2-.4-.4-.7 0 0 .2.3.2 0 0-.2-.3-.2-.3-.5l1-.2c0-.3.3-.3.5-.5.2 0 .2-.3.2-.5-.2 0-.5 0-.5-.2h.5c0-.3.3-.5.3-.5-.3-.3-.3-.3-.3-.6-.5 0-.7-.2-1 0-.2-.2-1.1 0-1.4.3 0-.3-.5 0-.5-.3.2-.4.8-.4 1-.4-.2-.3-1 0-1.2-.3 1.2-.7 2.4-1 3.7-1.2.2-.2.4-.2.7-.2.2-1 .7-1.5.7-1.5s1.5-3.4 1.5-3.7c.2-.5 2.7-8 3.2-8.4.2-.6-.5-1-.5-1 0-.3-.5 0-.5-.5.3-.3 1-.3 1.2-.5-.4 0-1.2.2-1.4-.3l4.1-1.2c3.7-.7 7.1-1.7 10.3-2.2 2-.3 4.4-.5 5.1 0 0-.3 1 0 1.3 0h.5c.4 0 1.7.8.2.8.5.2 2.2.4 2.2 1 .5 0 1.5 0 2 .4-2.2-.2-3.7.5-5.6.5 0 .3-.3 0-.3.3.7 0 1.5-.3 2.2.2-.5 0-.5.5.8 1l.4.2c.3 0 2.5-.5 2.5.2 0 0-2 .3-2 0v.3c.3.2 1.3 0 1.3.5-.3 0-5.5.5-6.2.7v.3c.7-.3 2-.3 2-.3-1.3 0-1.7.8-3 .5-2 .7-5.6 1.3-8.8 1.5-.2.7-.7 1.4-.7 2.4 0 0-.2-.2-.5.8l-2.2 5.2c1.5-.4 3.1-.7 4-.4h1.3c.5 0 4-.8 4.5-.3l-4.2 1c.5.3 3.2-.5 3.7-.3 0 .3-1.7.6-1.5.8.5 0 1.2 0 2 .3-2.2 0-2.7.7-1.8.7.3 0 .3.2.5.5.3-.3.5.2.5 0v.2c.3 0 1-.2 1.2.3-.2 0-5 .5-5.8 1 .7-.3 2.2 0 2 0-1 .2-1.8.4-3 .4-1.2.5-3 1.3-5.2 1.8l-.2.4c-.5 1-.7.5-1 1.5l-.4 2c2.1-.5 4.3-.8 6-1 .8.7 2.5-.5 4-.3-.2.5 2.7 0 4.1 0 1.5 0 2.7.3 3.7.3-.7.2-2 .2-3.2.2-.5 0 0 .5-.2.5h.5c.2.2 1.2 0 1.4 0a16.4 16.4 0 0 1 4.2.8c-.7.2-1.7.4-1 .4a3 3 0 0 1 1.2.3s-1.2.5-.2.5l2 .2s-.5.2-1.5 0c-1.2 0-2 .5-1.7.5.5 0 1.2.3 1.2.3l-.7.2c-1 0-2.2.3-2.2.3.7.2 1.2.2 1.2.7Zm26.6-6c-1.4 1-3.2 2-2.2 1.7-.7.5-1.4 1.2 0 .7-.7.5-1 1 1.5-.2.2.2-1 .5-.5.5.7-.3-3.1 2.4-2.2 2.1.3.3-1 .3-1 .5.8.2 1.5 0 2 .2-9.2 4.8-1.3 2-7.5 4.6l-1.2.5a6 6 0 0 1-6.3-.5c-9.3-6-5.9-15.1-4.6-17.8l1.7-5.2c1.7-5 3.8-9 4-9.4.4-.5.6-1.2.8-1.7.6-1.2 2-2.4 2.3-3.6h.2c.2-.7.4-1.2.8-1.7.6.5.4.8.4 1 .2-.2.2-.5.4-.5s.3.3.5.3c-.5.2-.4.7-.2 1-.2 0 0 .2 0 .4 1 .2.7 1 1.1 1.2-.2-.5 0-.7.2-1.2.3.2.3.7 0 1 .8 0 .8-.8 1.2-.8l.2-.4.3.2c.2 0 0-.2.2 0l.8.2c0 .8.3 1.5.2 2.2l-.6 2.4a98 98 0 0 1-5.7 17.3s-1.8 3.6-1.6 6c.4 1.9 2.2 1 2.2 1 5.4-2.5 1.7-.5 5.1-2.2 0 .2 0 .2-.2.2 1.5.3.3.5 2.9-.2-.4.7 1.4-.3 4-1l-1 .5c.1.5.3.2.8.2 1.8-1 1.4-.2 3.5-1.2-.7.5-3.4 1.7-2.5 1.7Zm25.3 0c-1.3 1-3.2 2-2.2 1.7-.7.5-1.4 1.2 0 .7-.6.5-1 1 1.5-.2.2.2-1 .5-.5.5.7-.3-3.1 2.4-2.2 2.1.3.3-1 .3-1 .5.8.2 1.5 0 2 .2-9.2 4.8-1.3 2-7.5 4.6l-1.1.5a6 6 0 0 1-6.3-.5c-9.4-6-6-15.1-4.7-17.8l1.7-5.2c1.7-5 3.8-9 4-9.4.4-.5.6-1.2.8-1.7.6-1.2 2-2.4 2.3-3.6h.2c.2-.7.4-1.2.9-1.7.5.5.3.8.3 1 .2-.2.2-.5.4-.5.3 0 .3.3.5.3-.4.2-.4.7-.1 1-.3 0 0 .2 0 .4 1 .2.6 1 1 1.2-.2-.5 0-.7.2-1.2.3.2.3.7.1 1 .7 0 .7-.8 1.2-.8l.1-.4.3.2c.2 0 0-.2.2 0l.8.2c0 .8.3 1.5.2 2.2l-.5 2.4a98 98 0 0 1-5.8 17.3s-1.8 3.6-1.6 6c.4 1.9 2.3 1 2.3 1 5.3-2.5 1.6-.5 5-2.2.1.2.1.2-.1.2 1.4.3.3.5 2.8-.2-.4.7 1.4-.3 4-1l-1 .5c.1.5.4.2.8.2 1.9-1 1.4-.2 3.5-1.2-.7.5-3.4 1.7-2.5 1.7Z" fill="#EBEBEB"/></svg>