<svg width="628" height="601" fill="none" xmlns="http://www.w3.org/2000/svg"><g clip-path="url(#a)"><path d="M600.4 136.8H573v-27.2h-27.3V82.3h-27.2V55H464V27.8h-54.6V.5H218.6v27.3h-54.5V55h-54.5v27.3H82.3v27.3H55v27.2H27.8v81.8H.5v163.7h27.3V464H55v27.3h27.3v27.2h27.3V546H164v27.3h54.5v27.2h191v-27.2H464v-27.3h54.5v-27.3h27.2v-27.2h27.3V464h27.3v-81.8h27.3V218.6h-27.3v-81.8Z" fill="#FF3FB4"/><path d="M518.6 191.4h-27.3V164h-27.2v-27.3h-54.6v27.3h27.3v27.3H464.1v27.2h27.2v109.1h27.3v-54.5h27.3v-54.6h-27.3v-27.2Z" fill="#FED318"/><path d="M545.9 218.6v-27.2h-27.3v27.2h27.3ZM518.6 355h27.3v-27.3h-27.3V355Z" fill="#430098"/><path d="M518.6 300.5v27.2h27.3v-54.5h-27.3v27.3Z" fill="#F58220"/><path d="M518.6 164.1h-27.3v27.3h27.3V164ZM491.3 246h-27.2v54.5h27.2V245.9Z" fill="#430098"/><path d="M464 246h27.3v-27.4h-27.2V246Z" fill="#F58220"/><path d="M464 164.1h27.3v-27.3h-27.2v27.3ZM464 355v27.3h54.6V355h-54.5Z" fill="#430098"/><path d="M518.6 327.7h-54.5V355h54.5v-27.3Z" fill="#F58220"/><path d="M491.3 300.5h-27.2v27.2h27.2v-27.2Z" fill="#fff"/><path d="M464 246v-27.4h-27.2V246h27.3Z" fill="#430098"/><path d="M464 218.6v-27.2h-27.2v27.2h27.3Z" fill="#F58220"/><path d="M464 109.6h-27.2v27.2h27.3v-27.2ZM464 382.3H382.4v27.2H464v-27.2Z" fill="#430098"/><path d="M464 355H382.4v27.3H464V355Z" fill="#F58220"/><path d="M464 300.5h-54.5v27.2h54.6v-27.2ZM436.8 191.4h-27.3v27.2h27.3v-27.2Z" fill="#430098"/><path d="M436.8 164.1h-27.3v27.3h27.3V164Z" fill="#F58220"/><path d="M436.8 109.6h-27.3v27.2h27.3v-27.2Z" fill="#fff"/><path d="M436.8 82.3h-27.3v27.3h27.3V82.3Z" fill="#430098"/><path d="M409.5 355H464.1v-27.3h-54.6V355Z" fill="#fff"/><path d="M409.5 273.2h-27.2v27.3h27.2v-27.3ZM409.5 246v-27.4h-27.2V246h27.2Z" fill="#430098"/><path d="M409.5 191.4h-27.2v27.2h27.2v-27.2Z" fill="#F58220"/><path d="M409.5 164.1h-27.2v27.3h27.2V164Z" fill="#FED318"/><path d="M409.5 164.1v-27.3h-27.2v27.3h27.2Z" fill="#fff"/><path d="M409.5 136.8v-27.2h-27.2v27.2h27.2Z" fill="#430098"/><path d="M409.5 355v-27.3h-27.2V355h27.2Z" fill="#FED318"/><path d="M409.5 300.5h-27.2v27.2h27.2v-27.2ZM382.3 273.2H355v27.3h27.3v-27.3Z" fill="#fff"/><path d="M382.3 246H355v27.2h27.3v-27.3Z" fill="#430098"/><path d="M355 246h27.3v-27.4H355V246Z" fill="#F58220"/><path d="M382.3 191.4H355v27.2h27.3v-27.2Z" fill="#FED318"/><path d="M382.3 164.1H355v27.3h27.3V164Z" fill="#fff"/><path d="M355 164.1h27.3v-27.3H355v27.3ZM355 382.3h27.3V355H355v27.3Z" fill="#430098"/><path d="M355 355h27.3v-27.3H355V355Z" fill="#F58220"/><path d="M355 300.5v27.2h27.3v-27.2H355ZM327.7 246h-27.2v27.2h27.2v27.3H355v-81.9h-27.3V246Z" fill="#FED318"/><path d="M355 191.4h-27.3v27.2H355v-27.2Z" fill="#fff"/><path d="M355 164.1h-27.3v27.3H355V164ZM327.7 355H355v-27.3h-27.3V355Z" fill="#430098"/><path d="M327.7 300.5v27.2H355v-27.2h-27.3ZM327.7 300.5v-27.3h-27.2v27.3h27.2Z" fill="#F58220"/><path d="M300.5 218.6V246h27.2v-27.3h-27.2Z" fill="#fff"/><path d="M327.7 218.6v-27.2h-27.2v27.2h27.2ZM327.7 300.5h-27.2v27.2h27.2v-27.2Z" fill="#430098"/><path d="M300.5 300.5v-27.3h-27.3v27.3h27.3Z" fill="#FED318"/><path d="M300.5 246h-27.3v27.2h27.3v-27.3Z" fill="#fff"/><path d="M300.5 246v-27.4h-27.3V246h27.3ZM273.2 327.7V355h27.3v-27.3h-27.3Z" fill="#430098"/><path d="M300.5 300.5h-27.3v27.2h27.3v-27.2Z" fill="#F58220"/><path d="M273.2 273.2h-27.3v27.3h27.3v-27.3Z" fill="#fff"/><path d="M273.2 246h-27.3v27.2h27.3v-27.3Z" fill="#430098"/><path d="M246 300.5v27.2h27.2v-27.2h-27.3Z" fill="#FED318"/><path d="M246 273.2h-27.4v27.3H246v-27.3Z" fill="#430098"/><path d="M218.6 300.5v27.2H246v-27.2h-27.3Z" fill="#fff"/><path d="M573.1 218.6H546v109.1H573v-109Z" fill="#430098"/><path d="M273.2 327.7h27.3v-27.2h-27.3v27.2Z" fill="#F58220"/><path d="M191.4 436.8H164v27.3h27.3v-27.3Z" fill="#430098"/><path d="M164.1 464h-27.3v27.4h27.3V464Z" fill="#430098"/><path d="M164.1 436.8h-27.3v27.3h27.3v-27.3Z" fill="#F58220"/><path d="M136.8 436.8h-27.2v27.3h27.2v-27.3ZM273.2 355h27.3v-27.3h-27.3V355ZM273.2 355h-27.3v27.3h27.3V355Z" fill="#430098"/><path d="M246 355h27.2v-27.3h-27.3V355Z" fill="#F58220"/><path d="M246 327.7h27.2v-27.2h-27.3v27.2Z" fill="#FED318"/><path d="M246 382.3h-27.4v27.2H246v-27.2Z" fill="#430098"/><path d="M246 355h-27.4v27.3H246V355Z" fill="#F58220"/><path d="M218.6 355H246v-27.3h-27.3V355Z" fill="#FED318"/><path d="M218.6 327.7H246v-27.2h-27.3v27.2Z" fill="#fff"/><path d="M218.6 273.2v27.3H246v-27.3h-27.3ZM191.4 409.5v27.3h27.2v-27.3h-27.2Z" fill="#430098"/><path d="M218.6 382.3h-27.2v27.2h27.2v-27.2Z" fill="#F58220"/><path d="M218.6 355v-27.3h-27.2V355h27.2Z" fill="#fff"/><path d="M218.6 327.7v-27.2h-27.2v27.2h27.2Z" fill="#430098"/><path d="M164.1 436.8h27.3v-27.3H164v27.3Z" fill="#F58220"/><path d="M173 300.5h-36.2v27.2H191.4v-27.2H173Z" fill="#fff"/><path d="M136.8 409.5h-27.2v27.3h27.2v-27.3Z" fill="#F58220"/><path d="M218.6 355h-27.2v-27.3H136.8v54.6H82.3v27.2h54.5v27.3h27.3v-27.3h27.3v-27.2h27.2V355Z" fill="#FED318"/><path d="M136.8 363.3V355H82.3v27.3h54.5v-19Z" fill="#fff"/><path d="M109.6 409.5H82.3v27.3h27.3v-27.3ZM164.1 273.2h-54.5v54.5H55v81.8h27.3V355h54.5v-54.5h54.6v-27.3H164Z" fill="#430098"/></g><defs><clipPath id="a"><path fill="#fff" transform="translate(.5 .5)" d="M0 0h627.2v599.9H0z"/></clipPath></defs></svg>