<svg width="1000" height="1000" fill="none" xmlns="http://www.w3.org/2000/svg"><path fill="#000" d="M0 0h1000v1000H0z"/><path d="M647 452c12 83-73 100-122 99-3 0-6 1-8 4-5 7-13 16-19 16-7 0-14 13-16 21-1 1 0 2 1 2 78-25 108-34 121-32 11 2 31 38 39 55-21 2-28-18-33-21-4-3-6 10-6 16-4-2-10-5-11-16 0-10-6-8-10-7-4 0-68 21-78 23-9 3-20 7-29 13-16 8-25 2-28-10-2-10 12-41 19-55l-30 11a790 790 0 0 0-57 44c-3 15-12 20-28 28-13 6-58 76-81 113l-6 6c-15 10-30 35-36 47-9-25 3-46 9-54-3-2-9-1-12 0 8-28 37-28 36-28 5-5 69-95 70-100 2-4-1-23 31-34h2c24-16 43-42 49-53-33-2-71-21-91-32-4-3-8-5-13-6-27-3-55 15-66 24-4-6 1-24 4-32-11-2-27 14-34 22-7-11-1-32 3-40-14 0-24 7-27 10 12-90 104-63 105-62-5-5-5-12-4-15 56 2 82-8 98-17 130-72 186-28 206-17 21 11 58 16 84 5 31-14 26-50 20-63-7-15-46-36-59-63-14-26-2-58 14-62 15-5 26 0 34 8 6 5 21 8 28 11 6 2 17 5 16 7 0 2-11 2-12 2-4 0-7 0-4 2l15 6v1c-22 6-43-6-57 8-16 15 17 26 33 44 17 17 34 39 21 87-11 37-56 68-79 81l-2 3Z" fill="#fff"/></svg>