<svg width="101" height="100" fill="none" xmlns="http://www.w3.org/2000/svg"><rect x=".5" width="100" height="100" rx="50" fill="#F7931A"/><path fill-rule="evenodd" clip-rule="evenodd" d="M74.7 43.5c.9-6.7-4.2-10.2-11.1-12.5l2.1-9-5.5-1.4-2 8.9-4.4-1 2-8.9-5.5-1.3-2.2 9-1.7-.3-1.8-.4-7.6-1.8-1.4 5.8s4.1.9 4 1c2.2.5 2.6 2 2.6 3.1L39.7 45h.2l.4.2H40l-.3-.1-3.3 14.4c-.3.7-1 1.7-2.5 1.3l-4-1-2.6 6.4 7.1 1.6 1.6.4 2.3.6-2.2 9.1 5.5 1.4 2.2-9 4.4 1-2.2 9 5.5 1.3 2.2-9c9.3 1.6 16.4.8 19.2-7.7 2.3-6.9-.2-10.8-5.2-13.3 3.6-.9 6.3-3.2 7-8.1Zm-10.9 0c-1.3 5.7-9.7 3.6-13.4 2.6l-.7-.2 2.6-11 1.2.3c3.9.8 11.7 2.5 10.3 8.3Zm-1.5 17.7C60.8 67.5 51 65 46.5 63.8l-1-.2 2.9-12.1 1.4.3c4.7 1 14 3 12.5 9.4Z" fill="#fff"/></svg>