<svg width="1000" height="1000" fill="none" xmlns="http://www.w3.org/2000/svg"><path fill="#000" d="M0 0h1000v1000H0z"/><path fill-rule="evenodd" clip-rule="evenodd" d="M196 231c11-15 27-19 44-19 41 0 62 30 72 55 6 13 9 27 11 37l3 15 2 9v5a149 149 0 0 0 4 27 22 22 0 0 1-13 39c-16 0-24-13-26-16-3-6-4-12-5-18l-4-29-2-12-2-11-8-29c-8-19-18-28-32-28l-9 1v13a337 337 0 0 0 5 40 401 401 0 0 1 2 101l-1 26c-1 25-1 52 2 76 6 50 25 90 75 108h1c11 5 26 5 39 5a22 22 0 0 1 0 44c-13 0-35 0-56-8-71-26-96-85-103-143a491 491 0 0 1 0-112l1-41c0-17-2-34-4-50l-1-10c-2-12-4-23-4-33-1-13-1-29 9-42Zm35 27Z" fill="#fff"/><path fill-rule="evenodd" clip-rule="evenodd" d="M420 298c-29 18-57 54-73 80a22 22 0 1 1-38-23c18-29 50-71 87-94 19-12 42-20 65-17 25 3 46 19 62 45 13 22 11 49 4 72-8 23-21 48-36 69-16 21-34 41-53 54-9 6-19 12-30 15-10 2-23 3-34-3-12-6-22-14-28-24-6-11-7-22-6-33 3-19 15-38 25-52 18-26 41-52 47-58a22 22 0 0 1 31 31c-4 4-24 28-42 52a89 89 0 0 0-17 33l1 5c0 1 2 4 8 7l4-1c4-1 9-3 16-8 13-10 28-25 42-44 13-18 24-38 30-56 5-19 4-31 1-36-12-18-22-23-31-24-9-2-21 1-35 10Zm-27 159Z" fill="#fff"/><path fill-rule="evenodd" clip-rule="evenodd" d="M580 337c-3-9-10-21-21-29-13-9-31-13-51-7a22 22 0 0 0 14 42l7-1 4 2 6 7v1c3 7 3 19-2 37a220 220 0 0 1-63 95l-17 12-8 2h-3l-1-1c-1-3-2-10 3-25a22 22 0 0 0-42-14c-6 19-8 39-1 55 3 9 9 17 17 22 9 5 18 7 27 7 11 0 20-3 29-7 8-5 17-11 25-18a264 264 0 0 0 76-116c6-20 9-44 1-64ZM446 498Zm0 0Z" fill="#fff"/><path fill-rule="evenodd" clip-rule="evenodd" d="m751 344-10 4a1924 1924 0 0 1-114 80 22 22 0 1 1-23-37 1880 1880 0 0 0 106-74c10-10 23-15 35-16 13-2 27 0 39 7 13 8 22 21 22 39 1 17-6 34-18 53a422 422 0 0 1-141 128c-6 3-14 11-28 28l-51 75c-25 37-65 66-107 75-42 10-88 1-117-41a22 22 0 0 1 37-25c15 24 41 31 70 24 30-7 61-29 80-58h1c21-33 38-58 52-76 14-19 28-33 44-41 19-10 82-51 123-114 10-14 12-23 11-26l-1-3-10-2ZM240 575c12 0 22 10 22 22 0 13-5 30-9 42l-15 34a22 22 0 1 1-39-19 312 312 0 0 0 19-57c0-12 10-22 22-22Z" fill="#fff"/><path fill-rule="evenodd" clip-rule="evenodd" d="M437 687c6 10 1 24-10 29-19 10-47 33-59 49a22 22 0 0 1-35-27c17-21 50-49 75-61 11-6 24-1 29 10ZM549 360c4-11 16-18 27-15 18 5 41 20 50 48 9 29 2 64-26 107-18 26-34 44-50 56a80 80 0 0 1-48 19c-35 0-53-30-53-55a22 22 0 0 1 44 0c0 9 5 11 9 11 3 0 10-1 21-10 11-8 24-22 40-46 25-37 25-58 21-69-3-10-12-16-20-19-11-3-18-15-15-27Z" fill="#fff"/></svg>